<?xml version="1.0" encoding="utf-8"?>
<!-- Generator: Adobe Illustrator 27.1.1, SVG Export Plug-In . SVG Version: 6.00 Build 0)  -->
<svg version="1.1" id="Layer_1" xmlns="http://www.w3.org/2000/svg" xmlns:xlink="http://www.w3.org/1999/xlink" x="0px" y="0px"
	 viewBox="0 0 1152 864" style="enable-background:new 0 0 1152 864;" xml:space="preserve">
<style type="text/css">
	.st0{fill:#FCBD01;}
	.st1{fill:#FFFFFF;}
	.st2{filter:url(#Adobe_OpacityMaskFilter);}
	.st3{mask:url(#SVGID_1_);}
	.st4{fill:#173856;}
	.st5{fill:#232323;}
</style>
<rect class="st0" width="1152" height="864"/>
<g>
	<path class="st1" d="M2863.6-1295.9c-18.5-13.7,5.9-67.7-18.4-83.2c-33.1-21.2-62.9,24.7-32.9,47.3c11.7,8.4,30.1,0.3,34.4,18.5
		c2.4,10-5.7,19.6-15.4,20.7c-31.2,3.4-60.3-21.8-65.4-51.6c-3-16.8,1-34,11.1-47.8c10.2-14,25.7-23.4,42.9-25.9
		c37.9-5.7,72.8,26.7,72.1,64.6c-0.1,5,0,10.4-0.1,15.5c-1.2,9.1,4,38.3-7.3,42.1C2877.2-1290.5,2871.1-1291.6,2863.6-1295.9z"/>
	<path class="st1" d="M2863.6-1295.9c1.9-0.1,7.2,0.6,10.1,0.7c4.9,0.2,6.7-0.6,10.8-0.7C2877.2-1290.5,2871.1-1291.6,2863.6-1295.9
		z"/>
	<path class="st1" d="M2589.7-1294c-36.6-8.5-57.1-47.4-44.7-82.6c5.7-15.7,17.3-28.6,32.4-35.7c15.1-7.1,32-8.1,47.7-2.4
		c16.5,6,29.3,17.9,36.7,33.8c2.4,5.2,4.4,10.6,5.2,16.2c1.3,8.5,1.9,54.9-0.7,61.9c-1.2,3.2-3.6,6.2-6.8,7.6
		c-5.3,3.7-11.1,3.7-16.9,1.1c-13.7-7.8-9.4-20.9-10.1-34.2c-0.9-16.5,5.1-36.1-8.8-48.7c-13.1-11.9-36.1-9-44.1,7.6
		c-9.9,22.6,4,42.9,27.9,42.9c7.5,0,15.6,7.9,15.4,15.3c-0.1,5.6-0.4,8.3-4.7,13l-0.5,0.5C2611.8-1290.6,2597.5-1291.5,2589.7-1294z
		"/>
	<path class="st1" d="M2589.7-1294c4.4-2.9,16.4,2.8,26.6-3.9l0.6-0.4l0.8,0.5C2611.8-1290.6,2597.5-1291.5,2589.7-1294z"/>
	<path class="st1" d="M2642.6-1294.2c1.2-0.8,15.4-1.5,16.9-1.1C2654.1-1291.6,2648.3-1291.5,2642.6-1294.2z"/>
	<path class="st1" d="M2486-1294.5c-17.3-7.2-5.5-39.8-10.6-53.5c-1.4-3.9-6.7-11.5-9-15.3l-28.5-47.8c-5.6-9.4-17.3-25.1-15.5-35.8
		c2.3-13.5,21-18,29.2-7.4c5.7,7.2,10.7,17,15.3,25l26.2,45.1c14.2-21.2,25-46.6,39.4-68c12.1-17.9,38.8-2.7,29.4,16.7
		c-3.9,7.9-8.5,15.6-12.8,23.3c-8.2,14.5-16.5,28.9-24.9,43.3c-3.3,5.6-10.9,17.3-12.6,22.9c-3.5,11.1,3.3,37.7-4.3,46.9
		c-2.5,3.7-5.7,5.9-10.1,6.8C2493.3-1291.7,2489.3-1292.4,2486-1294.5z"/>
	<path class="st1" d="M2501.7-1295.4c1.5-1.4,2.9-2.8,4.4-4.2l1.1,0.2c-2.5,3.7-5.7,5.9-10.1,6.8c-3.8,0.8-7.8,0.1-11.1-2
		C2488.3-1295,2497.6-1294.9,2501.7-1295.4z"/>
	<path class="st1" d="M2683.6-1296c-9.3-6.2-6.8-24.7-6.8-35l0-43.6c0.1-14.3,0.1-28.7,0.1-43c-0.1-14.7-4.7-45.2,19-42.5
		c4.7,0.5,8.9,2.9,11.9,6.6c5.4,7,3.9,26.7,3.9,35.8l0,47.6l0,41.2c0,10.1,2.2,25.8-6.4,32.3
		C2699.8-1291.3,2688.7-1290.6,2683.6-1296z"/>
	<path class="st1" d="M2683.6-1296c3.5-0.8,14.4,4,19.6-0.4c0.5-0.4,1.2-0.1,1.9-0.1C2699.8-1291.3,2688.7-1290.6,2683.6-1296z"/>
	<path class="st1" d="M2730.8-1294.1c-10.7-4.7-9.7-14.5-9.8-24.3c-0.1-5-0.1-10,0-14.9l0.2-45.8l0-41c0-9-0.4-19,1.1-27.8
		c0.7-3.9,3.3-7.4,6.6-9.6c3.8-2.5,8.4-3.3,12.9-2.4c13.1,2.7,14.1,14.3,13.8,25.3c-0.3,10.4-0.3,21.1-0.3,31.5l0.3,64.9
		c0,6,0.1,12.1,0,18.2c0,7.6,1,19.5-6.6,24.1C2743.2-1291.7,2737.4-1291,2730.8-1294.1z"/>
	<path class="st1" d="M2730.8-1294.1c0.4-0.2,0.8-0.5,1.2-0.7c3.1,0.6,15.6-1.4,17-1.1C2743.2-1291.7,2737.4-1291,2730.8-1294.1z"/>
</g>
<text transform="matrix(1 0 0 1 2863.6313 -1292.1947)" class="st4" style="font-family:'DGHeaven-Bold'; font-size:260.8023px;">GO</text>
<defs>
	<filter id="Adobe_OpacityMaskFilter" filterUnits="userSpaceOnUse" x="3113.5" y="169.3" width="279.6" height="193.3">
		
			<feColorMatrix  type="matrix" values="-1 0 0 0 1  0 -1 0 0 1  0 0 -1 0 1  0 0 0 1 0" color-interpolation-filters="sRGB" result="source"/>
		<feFlood  style="flood-color:white;flood-opacity:1" result="back"/>
		<feBlend  in="source" in2="back" mode="normal"/>
	</filter>
</defs>
<mask maskUnits="userSpaceOnUse" x="3113.5" y="169.3" width="279.6" height="193.3" id="SVGID_1_">
	<g class="st2">
	</g>
</mask>
<g class="st3">
	<path class="st4" d="M3182.2,289.9l6.1-28.9h61.2l-20.2,95.3c-22,4.2-40.3,6.4-54.8,6.4c-30.4,0-49-6.4-55.9-19.2
		c-6.8-12.8-6.8-34.8-0.1-66.1l2.3-11.3l3.8-17.7c6-28.4,15.9-48.7,29.7-60.7c13.8-12.1,31.8-18.2,53.9-18.2
		c17.9,0,31.5,4.7,40.8,14c9.4,9.3,11.8,25,7.1,47.1h-39.3c2.5-11.9,2.4-20.3-0.4-25.2c-2.7-5-8-7.5-15.8-7.5
		c-10,0-17.8,4.9-23.2,14.6c-5.5,9.8-11,27.8-16.6,54.1c-5.9,27.9-8,46.2-6.2,54.9c1.9,8.6,8.5,12.9,20,12.9
		c7.7,0,14.7-1.2,20.9-3.7l8.6-40.6H3182.2z"/>
	<path class="st4" d="M3258.6,252.8c6.8-31.8,16.6-53.6,29.6-65.6c12.9-12,30.6-18,53.1-18c21.9,0,36.9,5.9,45,17.6
		c8.2,11.7,9,33.5,2.3,65.2l-3.1,13.9l-3.1,14.4c-6.9,32.5-17.2,54.4-30.8,65.6c-13.6,11.1-30.6,16.7-51,16.7
		c-23.7,0-39.1-6.4-46.4-19.2c-7.2-12.8-7.9-33.1-1.9-60.7l3.4-16.7L3258.6,252.8z M3295.8,266.4c-5.5,25.8-7.8,43.6-6.7,53.2
		c1.1,9.7,6.9,14.5,17.5,14.5c10.4,0,18-4.9,23.1-14.8c5.2-9.8,10.5-27.8,16.1-54c5.8-26.9,7.9-44.9,6.5-54
		c-1.3-9.2-7-13.8-17.2-13.8c-10.1,0-17.8,4.8-22.9,14.4C3306.8,221.7,3301.4,239.8,3295.8,266.4z"/>
</g>
<text transform="matrix(1 0 0 1 1727.8196 587.7905)" class="st4" style="font-family:'Univers-CondensedBoldOblique'; font-size:260.8023px; letter-spacing:-24;">GO</text>
<g>
	<path class="st1" d="M4486-997.6c-18.5-13.7,5.9-67.7-18.4-83.2c-33.1-21.2-62.9,24.7-32.9,47.3c11.7,8.4,30.1,0.3,34.4,18.5
		c2.4,10-5.7,19.6-15.4,20.7c-31.2,3.4-60.3-21.8-65.4-51.6c-3-16.8,1-34,11.1-47.8c10.2-14,25.7-23.4,42.9-25.9
		c37.9-5.7,72.8,26.7,72.1,64.6c-0.1,5,0,10.4-0.1,15.5c-1.2,9.1,4,38.3-7.3,42.1C4499.5-992.3,4493.4-993.3,4486-997.6z"/>
	<path class="st1" d="M4486-997.6c1.9-0.1,7.2,0.6,10.1,0.7c4.9,0.2,6.7-0.6,10.8-0.7C4499.5-992.3,4493.4-993.3,4486-997.6z"/>
	<path class="st1" d="M4212-995.8c-36.6-8.5-57.1-47.4-44.7-82.6c5.7-15.7,17.3-28.6,32.4-35.7c15.1-7.1,32-8.1,47.7-2.4
		c16.5,6,29.3,17.9,36.7,33.8c2.4,5.2,4.4,10.6,5.2,16.2c1.3,8.5,1.9,54.9-0.7,61.9c-1.2,3.2-3.6,6.2-6.8,7.6
		c-5.3,3.7-11.1,3.7-16.9,1.1c-13.7-7.8-9.4-20.9-10.1-34.2c-0.9-16.5,5.1-36.1-8.8-48.7c-13.1-11.9-36.1-9-44.1,7.6
		c-9.9,22.6,4,42.9,27.9,42.9c7.5,0,15.6,7.9,15.4,15.3c-0.1,5.6-0.4,8.3-4.7,13l-0.5,0.5C4234.1-992.4,4219.9-993.3,4212-995.8z"/>
	<path class="st1" d="M4212-995.8c4.4-2.9,16.4,2.8,26.6-3.9l0.6-0.4l0.8,0.5C4234.1-992.4,4219.9-993.3,4212-995.8z"/>
	<path class="st1" d="M4264.9-996c1.2-0.8,15.4-1.5,16.9-1.1C4276.4-993.3,4270.7-993.3,4264.9-996z"/>
	<path class="st1" d="M4108.4-996.2c-17.3-7.2-5.5-39.8-10.5-53.5c-1.4-3.9-6.7-11.5-9-15.3l-28.5-47.8
		c-5.6-9.4-17.3-25.1-15.5-35.8c2.3-13.5,21-18,29.2-7.4c5.7,7.2,10.7,17,15.3,25l26.2,45.1c14.2-21.2,25-46.6,39.4-68
		c12.1-17.9,38.8-2.7,29.4,16.7c-3.9,7.9-8.5,15.6-12.8,23.3c-8.2,14.5-16.5,28.9-24.9,43.3c-3.3,5.6-10.9,17.3-12.6,22.9
		c-3.5,11.1,3.3,37.7-4.3,46.9c-2.5,3.7-5.7,5.9-10.1,6.8C4115.6-993.5,4111.7-994.2,4108.4-996.2z"/>
	<path class="st1" d="M4124.1-997.2c1.5-1.4,2.9-2.8,4.4-4.2l1.1,0.2c-2.5,3.7-5.7,5.9-10.1,6.8c-3.8,0.8-7.8,0.1-11.1-2
		C4110.7-996.8,4120-996.7,4124.1-997.2z"/>
	<path class="st1" d="M4305.9-997.8c-9.4-6.2-6.8-24.7-6.8-35l0-43.6c0.1-14.3,0.1-28.7,0.1-43c-0.1-14.7-4.7-45.2,19-42.5
		c4.7,0.5,8.9,2.9,11.9,6.6c5.4,7,3.9,26.7,3.9,35.8l0,47.6l0,41.2c0,10.1,2.2,25.8-6.4,32.3
		C4322.1-993.1,4311.1-992.3,4305.9-997.8z"/>
	<path class="st1" d="M4305.9-997.8c3.5-0.8,14.4,4,19.6-0.4c0.5-0.4,1.2-0.1,1.9-0.1C4322.1-993.1,4311.1-992.3,4305.9-997.8z"/>
	<path class="st1" d="M4353.2-995.9c-10.6-4.7-9.7-14.5-9.8-24.3c-0.1-5-0.1-10,0-14.9l0.2-45.8l0-41c0-9-0.4-19,1.1-27.8
		c0.7-3.9,3.3-7.4,6.6-9.6c3.8-2.5,8.4-3.3,12.9-2.4c13.1,2.7,14.1,14.3,13.8,25.3c-0.3,10.4-0.3,21.1-0.3,31.5l0.3,64.9
		c0,6,0.1,12.1,0,18.2c0,7.6,1,19.5-6.6,24.1C4365.6-993.5,4359.7-992.8,4353.2-995.9z"/>
	<path class="st1" d="M4353.2-995.9c0.4-0.2,0.8-0.5,1.2-0.7c3.1,0.6,15.6-1.4,17-1.1C4365.6-993.5,4359.7-992.8,4353.2-995.9z"/>
</g>
<text transform="matrix(1 0 0 1 4485.9771 -993.982)" class="st4" style="font-family:'TTMilksCasualPie-Base'; font-size:260.8023px;">GO</text>
<g>
	<path class="st1" d="M986.6-1421.6c-18.5-13.7,5.9-67.7-18.4-83.2c-33.1-21.2-62.9,24.7-32.9,47.3c11.7,8.4,30.1,0.3,34.4,18.5
		c2.4,10-5.7,19.6-15.4,20.7c-31.2,3.4-60.3-21.8-65.4-51.6c-3-16.8,1-34,11.1-47.8c10.2-14,25.7-23.4,42.9-25.9
		c37.9-5.7,72.8,26.7,72.1,64.6c-0.1,5,0,10.4-0.1,15.5c-1.2,9.1,4,38.3-7.3,42.1C1000.2-1416.3,994.1-1417.3,986.6-1421.6z"/>
	<path class="st1" d="M986.6-1421.6c1.9-0.1,7.2,0.6,10.1,0.7c4.9,0.2,6.7-0.6,10.8-0.7C1000.2-1416.3,994.1-1417.3,986.6-1421.6z"
		/>
	<path class="st1" d="M712.7-1419.8c-36.6-8.5-57.1-47.4-44.7-82.6c5.7-15.7,17.3-28.6,32.4-35.7c15.1-7.1,32-8.1,47.7-2.4
		c16.5,6,29.3,17.9,36.7,33.8c2.4,5.2,4.4,10.6,5.2,16.2c1.3,8.5,1.9,54.9-0.7,61.9c-1.2,3.2-3.6,6.2-6.8,7.6
		c-5.3,3.7-11.1,3.7-16.9,1.1c-13.7-7.8-9.4-20.9-10.1-34.2c-0.9-16.5,5.1-36.1-8.8-48.7c-13.1-11.9-36.1-9-44.1,7.6
		c-9.9,22.6,4,42.9,27.9,42.9c7.5,0,15.6,7.9,15.4,15.3c-0.1,5.6-0.4,8.3-4.7,13l-0.5,0.5C734.8-1416.4,720.5-1417.3,712.7-1419.8z"
		/>
	<path class="st1" d="M712.7-1419.8c4.4-2.9,16.4,2.8,26.6-3.9l0.6-0.4l0.8,0.5C734.8-1416.4,720.5-1417.3,712.7-1419.8z"/>
	<path class="st1" d="M765.5-1419.9c1.2-0.8,15.4-1.5,16.9-1.1C777.1-1417.3,771.3-1417.3,765.5-1419.9z"/>
	<path class="st1" d="M609-1420.2c-17.3-7.2-5.5-39.8-10.6-53.5c-1.4-3.9-6.7-11.5-9-15.3l-28.5-47.8c-5.6-9.4-17.3-25.1-15.5-35.8
		c2.3-13.5,21-18,29.2-7.4c5.7,7.2,10.6,17,15.3,25l26.2,45.1c14.2-21.2,25-46.6,39.4-68c12.1-17.9,38.8-2.7,29.4,16.7
		c-3.9,7.9-8.5,15.6-12.8,23.3c-8.2,14.5-16.5,28.9-24.9,43.3c-3.3,5.6-10.9,17.3-12.6,22.9c-3.5,11.1,3.3,37.7-4.3,46.9
		c-2.5,3.7-5.7,5.9-10.1,6.8C616.3-1417.5,612.3-1418.2,609-1420.2z"/>
	<path class="st1" d="M624.7-1421.1c1.5-1.4,2.9-2.8,4.4-4.2l1.1,0.2c-2.5,3.7-5.7,5.9-10.1,6.8c-3.8,0.8-7.8,0.1-11.1-2
		C611.3-1420.8,620.6-1420.6,624.7-1421.1z"/>
	<path class="st1" d="M806.5-1421.8c-9.4-6.2-6.8-24.7-6.8-35l0-43.6c0.1-14.3,0.1-28.7,0.1-43c-0.1-14.7-4.7-45.2,19-42.5
		c4.7,0.5,8.9,2.9,11.9,6.6c5.4,7,3.9,26.7,3.9,35.8l0,47.6l0,41.2c0,10.1,2.2,25.8-6.4,32.3
		C822.8-1417.1,811.7-1416.3,806.5-1421.8z"/>
	<path class="st1" d="M806.5-1421.8c3.5-0.8,14.4,4,19.6-0.4c0.5-0.4,1.2-0.1,1.9-0.1C822.8-1417.1,811.7-1416.3,806.5-1421.8z"/>
	<path class="st1" d="M853.8-1419.9c-10.7-4.7-9.7-14.5-9.8-24.3c-0.1-5-0.1-10,0-14.9l0.2-45.8l0-41c0-9-0.4-19,1.1-27.8
		c0.7-3.9,3.3-7.4,6.6-9.6c3.8-2.5,8.4-3.3,12.9-2.4c13.1,2.7,14.1,14.3,13.8,25.3c-0.3,10.4-0.3,21.1-0.3,31.5l0.3,64.9
		c0,6,0.1,12.1,0,18.2c0,7.6,1,19.5-6.6,24.1C866.2-1417.4,860.3-1416.8,853.8-1419.9z"/>
	<path class="st1" d="M853.8-1419.9c0.4-0.2,0.8-0.5,1.2-0.7c3.1,0.6,15.6-1.4,17-1.1C866.2-1417.4,860.3-1416.8,853.8-1419.9z"/>
</g>
<text transform="matrix(1 0 0 1 1031.0854 -1417.9462)" class="st4" style="font-family:'RageItalic'; font-size:260.8023px;">GO</text>
<g>
	<path class="st1" d="M1944.5-250.7c-18.5-13.7,5.9-67.7-18.4-83.2c-33.1-21.2-62.9,24.7-32.9,47.3c11.7,8.4,30.1,0.3,34.4,18.5
		c2.4,10-5.7,19.6-15.4,20.7c-31.2,3.4-60.3-21.8-65.4-51.6c-3-16.8,1-34,11.1-47.8c10.2-14,25.7-23.4,42.9-25.9
		c37.9-5.7,72.8,26.7,72.1,64.6c-0.1,5,0,10.4-0.1,15.5c-1.2,9.1,4,38.3-7.3,42.1C1958-245.3,1951.9-246.4,1944.5-250.7z"/>
	<path class="st1" d="M1944.5-250.7c1.9-0.1,7.2,0.6,10.1,0.7c4.9,0.2,6.7-0.6,10.8-0.7C1958-245.3,1951.9-246.4,1944.5-250.7z"/>
	<path class="st1" d="M1670.5-248.8c-36.6-8.5-57.1-47.4-44.7-82.6c5.7-15.7,17.3-28.6,32.4-35.7c15.1-7.1,32-8.1,47.7-2.4
		c16.5,6,29.3,17.9,36.7,33.8c2.4,5.2,4.4,10.6,5.2,16.2c1.3,8.5,1.9,54.9-0.7,61.9c-1.2,3.2-3.6,6.2-6.8,7.6
		c-5.3,3.7-11.1,3.7-16.9,1.1c-13.7-7.8-9.4-20.9-10.1-34.2c-0.9-16.5,5.1-36.1-8.8-48.7c-13.1-11.9-36.1-9-44.1,7.6
		c-9.9,22.6,4,42.9,27.9,42.9c7.5,0,15.6,7.9,15.4,15.3c-0.1,5.6-0.4,8.3-4.7,13l-0.5,0.5C1692.6-245.5,1678.4-246.3,1670.5-248.8z"
		/>
	<path class="st1" d="M1670.5-248.8c4.4-2.9,16.4,2.8,26.6-3.9l0.6-0.4l0.8,0.5C1692.6-245.5,1678.4-246.3,1670.5-248.8z"/>
	<path class="st1" d="M1723.4-249c1.2-0.8,15.4-1.5,16.9-1.1C1734.9-246.4,1729.2-246.3,1723.4-249z"/>
	<path class="st1" d="M1566.9-249.3c-17.3-7.2-5.5-39.8-10.6-53.5c-1.4-3.9-6.7-11.5-9-15.3l-28.5-47.8
		c-5.6-9.4-17.3-25.1-15.5-35.8c2.3-13.5,21-18,29.2-7.4c5.7,7.2,10.7,17,15.3,25l26.2,45.1c14.2-21.2,25-46.6,39.4-68
		c12.1-17.9,38.8-2.7,29.4,16.7c-3.9,7.9-8.5,15.6-12.8,23.3c-8.2,14.5-16.5,28.9-24.9,43.3c-3.3,5.6-10.9,17.3-12.6,22.9
		c-3.5,11.1,3.3,37.7-4.3,46.9c-2.5,3.7-5.7,5.9-10.1,6.8C1574.2-246.5,1570.2-247.2,1566.9-249.3z"/>
	<path class="st1" d="M1582.6-250.2c1.5-1.4,2.9-2.8,4.4-4.2l1.1,0.2c-2.5,3.7-5.7,5.9-10.1,6.8c-3.8,0.8-7.8,0.1-11.1-2
		C1569.2-249.8,1578.5-249.7,1582.6-250.2z"/>
	<path class="st1" d="M1764.4-250.8c-9.4-6.2-6.8-24.7-6.8-35l0-43.6c0.1-14.3,0.1-28.7,0.1-43c-0.1-14.7-4.7-45.2,19-42.5
		c4.7,0.5,8.9,2.9,11.9,6.6c5.4,7,3.9,26.7,3.9,35.8l0,47.6l0,41.2c0,10.1,2.2,25.8-6.4,32.3
		C1780.6-246.1,1769.6-245.4,1764.4-250.8z"/>
	<path class="st1" d="M1764.4-250.8c3.5-0.8,14.4,4,19.6-0.4c0.5-0.4,1.2-0.1,1.9-0.1C1780.6-246.1,1769.6-245.4,1764.4-250.8z"/>
	<path class="st1" d="M1811.7-248.9c-10.7-4.7-9.7-14.5-9.8-24.3c-0.1-5-0.1-10,0-14.9l0.2-45.8l0-41c0-9-0.4-19,1.1-27.8
		c0.7-3.9,3.3-7.4,6.6-9.6c3.8-2.5,8.4-3.3,12.9-2.4c13.1,2.7,14.1,14.3,13.8,25.3c-0.3,10.4-0.3,21.1-0.3,31.5l0.3,64.9
		c0,6,0.1,12.1,0,18.2c0,7.6,1,19.5-6.6,24.1C1824.1-246.5,1818.2-245.8,1811.7-248.9z"/>
	<path class="st1" d="M1811.7-248.9c0.4-0.2,0.8-0.5,1.2-0.7c3.1,0.6,15.6-1.4,17-1.1C1824.1-246.5,1818.2-245.8,1811.7-248.9z"/>
</g>
<text transform="matrix(1 0 0 1 1944.4883 -246.9973)" class="st4" style="font-family:'MVBoli'; font-size:260.8023px;">GO</text>
<g>
	<path class="st1" d="M3412.3-1784.4c-18.5-13.7,5.9-67.7-18.4-83.2c-33.1-21.2-62.9,24.7-32.9,47.3c11.7,8.4,30.1,0.3,34.4,18.5
		c2.4,10-5.7,19.6-15.4,20.7c-31.2,3.4-60.3-21.8-65.4-51.6c-3-16.8,1-34,11.1-47.8c10.2-14,25.7-23.4,42.9-25.9
		c37.9-5.7,72.8,26.7,72.1,64.6c-0.1,5,0,10.4-0.1,15.5c-1.2,9.1,4,38.3-7.3,42.1C3425.9-1779.1,3419.8-1780.1,3412.3-1784.4z"/>
	<path class="st1" d="M3412.3-1784.4c1.9-0.1,7.2,0.6,10.1,0.7c4.9,0.2,6.7-0.6,10.8-0.7C3425.9-1779.1,3419.8-1780.1,3412.3-1784.4
		z"/>
	<path class="st1" d="M3138.4-1782.6c-36.6-8.5-57.1-47.4-44.7-82.6c5.7-15.7,17.3-28.6,32.4-35.7c15.1-7.1,32-8.1,47.7-2.4
		c16.5,6,29.3,17.9,36.7,33.8c2.4,5.2,4.4,10.6,5.2,16.2c1.3,8.5,1.9,54.9-0.7,61.9c-1.2,3.2-3.6,6.2-6.8,7.6
		c-5.3,3.7-11.1,3.7-16.9,1.1c-13.7-7.8-9.4-20.9-10.1-34.2c-0.9-16.5,5.1-36.1-8.8-48.7c-13.1-11.9-36.1-9-44.1,7.6
		c-9.9,22.6,4,42.9,27.9,42.9c7.5,0,15.6,7.9,15.4,15.3c-0.1,5.6-0.4,8.3-4.7,13l-0.5,0.5
		C3160.5-1779.2,3146.2-1780.1,3138.4-1782.6z"/>
	<path class="st1" d="M3138.4-1782.6c4.4-2.9,16.4,2.8,26.6-3.9l0.6-0.4l0.8,0.5C3160.5-1779.2,3146.2-1780.1,3138.4-1782.6z"/>
	<path class="st1" d="M3191.2-1782.8c1.2-0.8,15.4-1.5,16.9-1.1C3202.8-1780.1,3197-1780.1,3191.2-1782.8z"/>
	<path class="st1" d="M3034.7-1783c-17.3-7.2-5.5-39.8-10.6-53.5c-1.4-3.9-6.7-11.5-9-15.3l-28.5-47.8c-5.6-9.4-17.3-25.1-15.5-35.8
		c2.3-13.5,21-18,29.2-7.4c5.7,7.2,10.7,17,15.3,25l26.2,45.1c14.2-21.2,25-46.6,39.4-68c12.1-17.9,38.8-2.7,29.4,16.7
		c-3.9,7.9-8.5,15.6-12.8,23.3c-8.2,14.5-16.5,28.9-24.9,43.3c-3.3,5.6-10.9,17.3-12.6,22.9c-3.5,11.1,3.3,37.7-4.3,46.9
		c-2.5,3.7-5.7,5.9-10.1,6.8C3042-1780.3,3038-1781,3034.7-1783z"/>
	<path class="st1" d="M3050.4-1784c1.5-1.4,2.9-2.8,4.4-4.2l1.1,0.2c-2.5,3.7-5.7,5.9-10.1,6.8c-3.8,0.8-7.8,0.1-11.1-2
		C3037-1783.6,3046.3-1783.5,3050.4-1784z"/>
	<path class="st1" d="M3232.2-1784.6c-9.3-6.2-6.8-24.7-6.8-35l0-43.6c0.1-14.3,0.1-28.7,0.1-43c-0.1-14.7-4.7-45.2,19-42.5
		c4.7,0.5,8.9,2.9,11.9,6.6c5.4,7,3.9,26.7,3.9,35.8l0,47.6l0,41.2c0,10.1,2.2,25.8-6.4,32.3
		C3248.5-1779.9,3237.4-1779.1,3232.2-1784.6z"/>
	<path class="st1" d="M3232.2-1784.6c3.5-0.8,14.4,4,19.6-0.4c0.5-0.4,1.2-0.1,1.9-0.1C3248.5-1779.9,3237.4-1779.1,3232.2-1784.6z"
		/>
	<path class="st1" d="M3279.5-1782.7c-10.7-4.7-9.7-14.5-9.8-24.3c-0.1-5-0.1-10,0-14.9l0.2-45.8l0-41c0-9-0.4-19,1.1-27.8
		c0.7-3.9,3.3-7.4,6.6-9.6c3.8-2.5,8.4-3.3,12.9-2.4c13.1,2.7,14.1,14.3,13.8,25.3c-0.3,10.4-0.3,21.1-0.3,31.5l0.3,64.9
		c0,6,0.1,12.1,0,18.2c0,7.6,1,19.5-6.6,24.1C3291.9-1780.3,3286-1779.6,3279.5-1782.7z"/>
	<path class="st1" d="M3279.5-1782.7c0.4-0.2,0.8-0.5,1.2-0.7c3.1,0.6,15.6-1.4,17-1.1C3291.9-1780.3,3286-1779.6,3279.5-1782.7z"/>
</g>
<text transform="matrix(1 0 0 1 3412.3191 -1780.7849)" class="st4" style="font-family:'MrStalwart'; font-size:260.8023px;">GO</text>
<g>
	<path class="st1" d="M1889.8-1658.1c-18.5-13.7,5.9-67.7-18.4-83.2c-33.1-21.2-62.9,24.7-32.9,47.3c11.7,8.4,30.1,0.3,34.4,18.5
		c2.4,10-5.7,19.6-15.4,20.7c-31.2,3.4-60.3-21.8-65.4-51.6c-3-16.8,1-34,11.1-47.8c10.2-14,25.7-23.4,42.9-25.9
		c37.9-5.7,72.8,26.7,72.1,64.6c-0.1,5,0,10.4-0.1,15.5c-1.2,9.1,4,38.3-7.3,42.1C1903.3-1652.7,1897.2-1653.8,1889.8-1658.1z"/>
	<path class="st1" d="M1889.8-1658.1c1.9-0.1,7.2,0.6,10.1,0.7c4.9,0.2,6.7-0.6,10.8-0.7C1903.3-1652.7,1897.2-1653.8,1889.8-1658.1
		z"/>
	<path class="st1" d="M1615.8-1656.3c-36.6-8.5-57.1-47.4-44.7-82.6c5.7-15.7,17.3-28.6,32.4-35.7c15.1-7.1,32-8.1,47.7-2.4
		c16.5,6,29.3,17.9,36.7,33.8c2.4,5.2,4.4,10.6,5.2,16.2c1.3,8.5,1.9,54.9-0.7,61.9c-1.2,3.2-3.6,6.2-6.8,7.6
		c-5.3,3.7-11.1,3.7-16.9,1.1c-13.7-7.8-9.4-20.9-10.1-34.2c-0.9-16.5,5.1-36.1-8.8-48.7c-13.1-11.9-36.1-9-44.1,7.6
		c-9.9,22.6,4,42.9,27.9,42.9c7.5,0,15.6,7.9,15.4,15.3c-0.1,5.6-0.4,8.3-4.7,13l-0.5,0.5
		C1637.9-1652.9,1623.7-1653.8,1615.8-1656.3z"/>
	<path class="st1" d="M1615.8-1656.3c4.4-2.9,16.4,2.8,26.6-3.9l0.6-0.4l0.8,0.5C1637.9-1652.9,1623.7-1653.8,1615.8-1656.3z"/>
	<path class="st1" d="M1668.7-1656.4c1.2-0.8,15.4-1.5,16.9-1.1C1680.2-1653.8,1674.5-1653.7,1668.7-1656.4z"/>
	<path class="st1" d="M1512.2-1656.7c-17.3-7.2-5.5-39.8-10.5-53.5c-1.4-3.9-6.7-11.5-9-15.3l-28.5-47.8
		c-5.6-9.4-17.3-25.1-15.5-35.8c2.3-13.5,21-18,29.2-7.4c5.7,7.2,10.7,17,15.3,25l26.2,45.1c14.2-21.2,25-46.6,39.4-68
		c12.1-17.9,38.8-2.7,29.4,16.7c-3.9,7.9-8.5,15.6-12.8,23.3c-8.2,14.5-16.5,28.9-24.9,43.3c-3.3,5.6-10.9,17.3-12.6,22.9
		c-3.5,11.1,3.3,37.7-4.3,46.9c-2.5,3.7-5.7,5.9-10.1,6.8C1519.5-1654,1515.5-1654.7,1512.2-1656.7z"/>
	<path class="st1" d="M1527.9-1657.6c1.5-1.4,2.9-2.8,4.4-4.2l1.1,0.2c-2.5,3.7-5.7,5.9-10.1,6.8c-3.8,0.8-7.8,0.1-11.1-2
		C1514.5-1657.3,1523.8-1657.1,1527.9-1657.6z"/>
	<path class="st1" d="M1709.7-1658.3c-9.3-6.2-6.8-24.7-6.8-35l0-43.6c0.1-14.3,0.1-28.7,0.1-43c-0.1-14.7-4.7-45.2,19-42.5
		c4.7,0.5,8.9,2.9,11.9,6.6c5.4,7,3.9,26.7,3.9,35.8l0,47.6l0,41.2c0,10.1,2.2,25.8-6.4,32.3
		C1725.9-1653.5,1714.9-1652.8,1709.7-1658.3z"/>
	<path class="st1" d="M1709.7-1658.3c3.5-0.8,14.4,4,19.6-0.4c0.5-0.4,1.2-0.1,1.9-0.1C1725.9-1653.5,1714.9-1652.8,1709.7-1658.3z"
		/>
	<path class="st1" d="M1757-1656.4c-10.7-4.7-9.7-14.5-9.8-24.3c-0.1-5-0.1-10,0-14.9l0.2-45.8l0-41c0-9-0.4-19,1.1-27.8
		c0.7-3.9,3.3-7.4,6.6-9.6c3.8-2.5,8.4-3.3,12.9-2.4c13.1,2.7,14.1,14.3,13.8,25.3c-0.3,10.4-0.3,21.1-0.3,31.5l0.3,64.9
		c0,6,0.1,12.1,0,18.2c0,7.6,1,19.5-6.6,24.1C1769.4-1653.9,1763.5-1653.3,1757-1656.4z"/>
	<path class="st1" d="M1757-1656.4c0.4-0.2,0.8-0.5,1.2-0.7c3.1,0.6,15.6-1.4,17-1.1C1769.4-1653.9,1763.5-1653.3,1757-1656.4z"/>
</g>
<text transform="matrix(1 0 0 1 1916.7872 -1654.4221)" class="st4" style="font-family:'medyna'; font-size:260.8023px;">GO</text>
<g>
	<path class="st1" d="M1922.1-3243.5c-18.5-13.7,5.9-67.7-18.4-83.2c-33.1-21.2-62.9,24.7-32.9,47.3c11.7,8.4,30.1,0.3,34.4,18.5
		c2.4,10-5.7,19.6-15.4,20.7c-31.2,3.4-60.3-21.8-65.4-51.6c-3-16.8,1-34,11.1-47.8c10.2-14,25.7-23.4,42.9-25.9
		c37.9-5.7,72.8,26.7,72.1,64.6c-0.1,5,0,10.4-0.1,15.5c-1.2,9.1,4,38.3-7.3,42.1C1935.6-3238.2,1929.6-3239.2,1922.1-3243.5z"/>
	<path class="st1" d="M1922.1-3243.5c1.9-0.1,7.2,0.6,10.1,0.7c4.9,0.2,6.7-0.6,10.8-0.7C1935.6-3238.2,1929.6-3239.2,1922.1-3243.5
		z"/>
	<path class="st1" d="M1648.1-3241.7c-36.6-8.5-57.1-47.4-44.7-82.6c5.7-15.7,17.3-28.6,32.4-35.7c15.1-7.1,32-8.1,47.7-2.4
		c16.5,6,29.3,17.9,36.7,33.8c2.4,5.2,4.4,10.6,5.2,16.2c1.3,8.5,1.9,54.9-0.7,61.9c-1.2,3.2-3.6,6.2-6.8,7.6
		c-5.3,3.7-11.1,3.7-16.9,1.1c-13.7-7.8-9.4-20.9-10.1-34.2c-0.9-16.5,5.1-36.1-8.8-48.7c-13.1-11.9-36.1-9-44.1,7.6
		c-9.9,22.6,4,42.9,27.9,42.9c7.5,0,15.6,7.9,15.4,15.3c-0.1,5.6-0.4,8.3-4.7,13l-0.5,0.5C1670.2-3238.3,1656-3239.2,1648.1-3241.7z
		"/>
	<path class="st1" d="M1648.1-3241.7c4.4-2.9,16.4,2.8,26.6-3.9l0.6-0.4l0.8,0.5C1670.2-3238.3,1656-3239.2,1648.1-3241.7z"/>
	<path class="st1" d="M1701-3241.8c1.2-0.8,15.4-1.5,16.9-1.1C1712.6-3239.2,1706.8-3239.2,1701-3241.8z"/>
	<path class="st1" d="M1544.5-3242.1c-17.3-7.2-5.5-39.8-10.6-53.5c-1.4-3.9-6.7-11.5-9-15.3l-28.5-47.8
		c-5.6-9.4-17.3-25.1-15.5-35.8c2.3-13.5,21-18,29.2-7.4c5.7,7.2,10.7,17,15.3,25l26.2,45.1c14.2-21.2,25-46.6,39.4-68
		c12.1-17.9,38.8-2.7,29.4,16.7c-3.9,7.9-8.5,15.6-12.8,23.3c-8.2,14.5-16.5,28.9-24.9,43.3c-3.3,5.6-10.9,17.3-12.6,22.9
		c-3.5,11.1,3.3,37.7-4.3,46.9c-2.5,3.7-5.7,5.9-10.1,6.8C1551.8-3239.4,1547.8-3240.1,1544.5-3242.1z"/>
	<path class="st1" d="M1560.2-3243c1.5-1.4,2.9-2.8,4.4-4.2l1.1,0.2c-2.5,3.7-5.7,5.9-10.1,6.8c-3.8,0.8-7.8,0.1-11.1-2
		C1546.8-3242.7,1556.1-3242.5,1560.2-3243z"/>
	<path class="st1" d="M1742-3243.7c-9.3-6.2-6.8-24.7-6.8-35l0-43.6c0.1-14.3,0.1-28.7,0.1-43c-0.1-14.7-4.7-45.2,19-42.5
		c4.7,0.5,8.9,2.9,11.9,6.6c5.4,7,3.9,26.7,3.9,35.8l0,47.6l0,41.2c0,10.1,2.2,25.8-6.4,32.3C1758.2-3239,1747.2-3238.2,1742-3243.7
		z"/>
	<path class="st1" d="M1742-3243.7c3.5-0.8,14.4,4,19.6-0.4c0.5-0.4,1.2-0.1,1.9-0.1C1758.2-3239,1747.2-3238.2,1742-3243.7z"/>
	<path class="st1" d="M1789.3-3241.8c-10.7-4.7-9.7-14.5-9.8-24.3c-0.1-5-0.1-10,0-14.9l0.2-45.8l0-41c0-9-0.4-19,1.1-27.8
		c0.7-3.9,3.3-7.4,6.6-9.6c3.8-2.5,8.4-3.3,12.9-2.4c13.1,2.7,14.1,14.3,13.8,25.3c-0.3,10.4-0.3,21.1-0.3,31.5l0.3,64.9
		c0,6,0.1,12.1,0,18.2c0,7.6,1,19.5-6.6,24.1C1801.7-3239.3,1795.8-3238.7,1789.3-3241.8z"/>
	<path class="st1" d="M1789.3-3241.8c0.4-0.2,0.8-0.5,1.2-0.7c3.1,0.6,15.6-1.4,17-1.1C1801.7-3239.3,1795.8-3238.7,1789.3-3241.8z"
		/>
</g>
<text transform="matrix(1 0 0 1 1961.2733 -3239.8467)" class="st4" style="font-family:'MalvieTrial-Regular'; font-size:260.8023px;">GO</text>
<g>
	<path class="st1" d="M1932.9-2703.9c-18.5-13.7,5.9-67.7-18.4-83.2c-33.1-21.2-62.9,24.7-32.9,47.3c11.7,8.4,30.1,0.3,34.4,18.5
		c2.4,10-5.7,19.6-15.4,20.7c-31.2,3.4-60.3-21.8-65.4-51.6c-3-16.8,1-34,11.1-47.8c10.2-14,25.7-23.4,42.9-25.9
		c37.9-5.7,72.8,26.7,72.1,64.6c-0.1,5,0,10.4-0.1,15.4c-1.2,9.1,4,38.3-7.3,42.1C1946.4-2698.5,1940.4-2699.6,1932.9-2703.9z"/>
	<path class="st1" d="M1932.9-2703.9c1.9-0.1,7.2,0.6,10.1,0.7c4.9,0.2,6.7-0.6,10.8-0.7C1946.4-2698.5,1940.4-2699.6,1932.9-2703.9
		z"/>
	<path class="st1" d="M1658.9-2702c-36.6-8.5-57.1-47.4-44.7-82.6c5.7-15.7,17.3-28.6,32.4-35.7c15.1-7.1,32-8.1,47.7-2.4
		c16.5,6,29.3,17.9,36.7,33.8c2.4,5.2,4.4,10.6,5.2,16.2c1.3,8.5,1.9,54.9-0.7,61.9c-1.2,3.2-3.6,6.2-6.8,7.6
		c-5.3,3.7-11.1,3.7-16.9,1.1c-13.7-7.8-9.4-20.9-10.1-34.2c-0.9-16.5,5.1-36.1-8.8-48.7c-13.1-11.9-36.1-9-44.1,7.6
		c-9.9,22.6,4,42.9,27.9,42.9c7.5,0,15.6,7.9,15.4,15.3c-0.1,5.6-0.4,8.3-4.7,13l-0.5,0.5C1681-2698.7,1666.8-2699.6,1658.9-2702z"
		/>
	<path class="st1" d="M1658.9-2702c4.4-2.9,16.4,2.8,26.6-3.9l0.6-0.4l0.8,0.5C1681-2698.7,1666.8-2699.6,1658.9-2702z"/>
	<path class="st1" d="M1711.8-2702.2c1.2-0.8,15.4-1.5,16.9-1.1C1723.4-2699.6,1717.6-2699.5,1711.8-2702.2z"/>
	<path class="st1" d="M1555.3-2702.5c-17.3-7.2-5.5-39.8-10.5-53.5c-1.4-3.9-6.7-11.5-9-15.3l-28.5-47.8
		c-5.6-9.4-17.3-25.1-15.5-35.8c2.3-13.5,21-18,29.2-7.4c5.7,7.2,10.7,17,15.3,25l26.2,45.1c14.2-21.2,25-46.6,39.4-68
		c12.1-17.9,38.8-2.7,29.4,16.7c-3.9,7.9-8.5,15.6-12.8,23.3c-8.2,14.5-16.5,28.9-24.9,43.3c-3.3,5.6-10.9,17.3-12.6,22.9
		c-3.5,11.1,3.3,37.7-4.3,46.9c-2.5,3.7-5.7,5.9-10.1,6.8C1562.6-2699.7,1558.6-2700.4,1555.3-2702.5z"/>
	<path class="st1" d="M1571-2703.4c1.5-1.4,2.9-2.8,4.4-4.2l1.1,0.2c-2.5,3.7-5.7,5.9-10.1,6.8c-3.8,0.8-7.8,0.1-11.1-2
		C1557.6-2703.1,1566.9-2702.9,1571-2703.4z"/>
	<path class="st1" d="M1752.8-2704c-9.3-6.2-6.8-24.7-6.8-35l0-43.6c0.1-14.3,0.1-28.7,0.1-43c-0.1-14.7-4.7-45.2,19-42.5
		c4.7,0.5,8.9,2.9,11.9,6.6c5.4,7,3.9,26.7,3.9,35.8l0,47.6l0,41.2c0,10.1,2.2,25.8-6.4,32.3C1769-2699.3,1758-2698.6,1752.8-2704z"
		/>
	<path class="st1" d="M1752.8-2704c3.5-0.8,14.4,4,19.6-0.4c0.5-0.4,1.2-0.1,1.9-0.1C1769-2699.3,1758-2698.6,1752.8-2704z"/>
	<path class="st1" d="M1800.1-2702.1c-10.7-4.7-9.7-14.5-9.8-24.3c-0.1-5-0.1-10,0-14.9l0.2-45.8l0-41c0-9-0.4-19,1.1-27.8
		c0.7-3.9,3.3-7.4,6.6-9.6c3.8-2.5,8.4-3.3,12.9-2.4c13.1,2.7,14.1,14.3,13.8,25.3c-0.3,10.4-0.3,21.1-0.3,31.5l0.3,64.9
		c0,6,0.1,12.1,0,18.2c0,7.6,1,19.5-6.6,24.1C1812.5-2699.7,1806.6-2699,1800.1-2702.1z"/>
	<path class="st1" d="M1800.1-2702.1c0.4-0.2,0.8-0.5,1.2-0.7c3.1,0.6,15.6-1.4,17-1.1C1812.5-2699.7,1806.6-2699,1800.1-2702.1z"/>
</g>
<text transform="matrix(1 0 0 1 1974.7655 -2700.2095)" class="st4" style="font-family:'KristenITC-Regular'; font-size:260.8023px;">GO</text>
<g>
	<path class="st1" d="M2001.3-2170.8c-18.5-13.7,5.9-67.7-18.4-83.2c-33.1-21.2-62.9,24.7-32.9,47.3c11.7,8.4,30.1,0.3,34.4,18.5
		c2.4,10-5.7,19.6-15.4,20.7c-31.2,3.4-60.3-21.8-65.4-51.6c-3-16.8,1-34,11.1-47.8c10.2-14,25.7-23.4,42.9-25.9
		c37.9-5.7,72.8,26.7,72.1,64.6c-0.1,5,0,10.4-0.1,15.5c-1.2,9.1,4,38.3-7.3,42.1C2014.9-2165.4,2008.8-2166.5,2001.3-2170.8z"/>
	<path class="st1" d="M2001.3-2170.8c1.9-0.1,7.2,0.6,10.1,0.7c4.9,0.2,6.7-0.6,10.8-0.7C2014.9-2165.4,2008.8-2166.5,2001.3-2170.8
		z"/>
	<path class="st1" d="M1727.4-2168.9c-36.6-8.5-57.1-47.4-44.7-82.6c5.7-15.7,17.3-28.6,32.4-35.7c15.1-7.1,32-8.1,47.7-2.4
		c16.5,6,29.3,17.9,36.7,33.8c2.4,5.2,4.4,10.6,5.2,16.2c1.3,8.5,1.9,54.9-0.7,61.9c-1.2,3.2-3.6,6.2-6.8,7.6
		c-5.3,3.7-11.1,3.7-16.9,1.1c-13.7-7.8-9.4-20.9-10.1-34.2c-0.9-16.5,5.1-36.1-8.8-48.7c-13.1-11.9-36.1-9-44.1,7.6
		c-9.9,22.6,4,42.9,27.9,42.9c7.5,0,15.6,7.9,15.4,15.3c-0.1,5.6-0.4,8.3-4.7,13l-0.5,0.5
		C1749.5-2165.6,1735.2-2166.4,1727.4-2168.9z"/>
	<path class="st1" d="M1727.4-2168.9c4.4-2.9,16.4,2.8,26.6-3.9l0.6-0.4l0.8,0.5C1749.5-2165.6,1735.2-2166.4,1727.4-2168.9z"/>
	<path class="st1" d="M1780.2-2169.1c1.2-0.8,15.4-1.5,16.9-1.1C1791.8-2166.5,1786-2166.4,1780.2-2169.1z"/>
	<path class="st1" d="M1623.7-2169.4c-17.3-7.2-5.5-39.8-10.5-53.5c-1.4-3.9-6.7-11.5-9-15.3l-28.5-47.8
		c-5.6-9.4-17.3-25.1-15.5-35.8c2.3-13.5,21-18,29.2-7.4c5.7,7.2,10.7,17,15.3,25l26.2,45.1c14.2-21.2,25-46.6,39.4-68
		c12.1-17.9,38.8-2.7,29.4,16.7c-3.9,7.9-8.5,15.6-12.8,23.3c-8.2,14.5-16.5,28.9-24.9,43.3c-3.3,5.6-10.9,17.3-12.6,22.9
		c-3.5,11.1,3.3,37.7-4.3,46.9c-2.5,3.7-5.7,5.9-10.1,6.8C1631-2166.6,1627-2167.3,1623.7-2169.4z"/>
	<path class="st1" d="M1639.4-2170.3c1.5-1.4,2.9-2.8,4.4-4.2l1.1,0.2c-2.5,3.7-5.7,5.9-10.1,6.8c-3.8,0.8-7.8,0.1-11.1-2
		C1626-2170,1635.3-2169.8,1639.4-2170.3z"/>
	<path class="st1" d="M1821.2-2170.9c-9.4-6.2-6.8-24.7-6.8-35l0-43.6c0.1-14.3,0.1-28.7,0.1-43c-0.1-14.7-4.7-45.2,19-42.5
		c4.7,0.5,8.9,2.9,11.9,6.6c5.4,7,3.9,26.7,3.9,35.8l0,47.6l0,41.2c0,10.1,2.2,25.8-6.4,32.3
		C1837.5-2166.2,1826.4-2165.5,1821.2-2170.9z"/>
	<path class="st1" d="M1821.2-2170.9c3.5-0.8,14.4,4,19.6-0.4c0.5-0.4,1.2-0.1,1.9-0.1C1837.5-2166.2,1826.4-2165.5,1821.2-2170.9z"
		/>
	<path class="st1" d="M1868.5-2169c-10.7-4.7-9.7-14.5-9.8-24.3c-0.1-5-0.1-10,0-14.9l0.2-45.8l0-41c0-9-0.4-19,1.1-27.8
		c0.7-3.9,3.3-7.4,6.6-9.6c3.8-2.5,8.4-3.3,12.9-2.4c13.1,2.7,14.1,14.3,13.8,25.3c-0.3,10.4-0.3,21.1-0.3,31.5l0.3,64.9
		c0,6,0.1,12.1,0,18.2c0,7.6,1,19.5-6.6,24.1C1880.9-2166.6,1875-2165.9,1868.5-2169z"/>
	<path class="st1" d="M1868.5-2169c0.4-0.2,0.8-0.5,1.2-0.7c3.1,0.6,15.6-1.4,17-1.1C1880.9-2166.6,1875-2165.9,1868.5-2169z"/>
</g>
<text transform="matrix(1 0 0 1 2040.1179 -2167.103)" class="st4" style="font-family:'Isite'; font-size:260.8023px;">GO</text>
<g>
	<path class="st1" d="M2344.2,249.7c-18.5-13.7,5.9-67.7-18.4-83.2c-33.1-21.2-62.9,24.7-32.9,47.3c11.7,8.4,30.1,0.3,34.4,18.5
		c2.4,10-5.7,19.6-15.4,20.7c-31.2,3.4-60.3-21.8-65.4-51.6c-3-16.8,1-34,11.1-47.8c10.2-14,25.7-23.4,42.9-25.9
		c37.9-5.7,72.8,26.7,72.1,64.6c-0.1,5,0,10.4-0.1,15.5c-1.2,9.1,4,38.3-7.3,42.1C2357.8,255,2351.7,254,2344.2,249.7z"/>
	<path class="st1" d="M2344.2,249.7c1.9-0.1,7.2,0.6,10.1,0.7c4.9,0.2,6.7-0.6,10.8-0.7C2357.8,255,2351.7,254,2344.2,249.7z"/>
	<path class="st1" d="M2070.3,251.5c-36.6-8.5-57.1-47.4-44.7-82.6c5.7-15.7,17.3-28.6,32.4-35.7c15.1-7.1,32-8.1,47.7-2.4
		c16.5,6,29.3,17.9,36.7,33.8c2.4,5.2,4.4,10.6,5.2,16.2c1.3,8.5,1.9,54.9-0.7,61.9c-1.2,3.2-3.6,6.2-6.8,7.6
		c-5.3,3.7-11.1,3.7-16.9,1.1c-13.7-7.8-9.4-20.9-10.1-34.2c-0.9-16.5,5.1-36.1-8.8-48.7c-13.1-11.9-36.1-9-44.1,7.6
		c-9.9,22.6,4,42.9,27.9,42.9c7.5,0,15.6,7.9,15.4,15.3c-0.1,5.6-0.4,8.3-4.7,13l-0.5,0.5C2092.4,254.9,2078.1,254,2070.3,251.5z"/>
	<path class="st1" d="M2070.3,251.5c4.4-2.9,16.4,2.8,26.6-3.9l0.6-0.4l0.8,0.5C2092.4,254.9,2078.1,254,2070.3,251.5z"/>
	<path class="st1" d="M2123.1,251.3c1.2-0.8,15.4-1.5,16.9-1.1C2134.7,254,2128.9,254,2123.1,251.3z"/>
	<path class="st1" d="M1966.6,251.1c-17.3-7.2-5.5-39.8-10.5-53.5c-1.4-3.9-6.7-11.5-9-15.3l-28.5-47.8
		c-5.6-9.4-17.3-25.1-15.5-35.8c2.3-13.5,21-18,29.2-7.4c5.7,7.2,10.7,17,15.3,25l26.2,45.1c14.2-21.2,25-46.6,39.4-68
		c12.1-17.9,38.8-2.7,29.4,16.7c-3.9,7.9-8.5,15.6-12.8,23.3c-8.2,14.5-16.5,28.9-24.9,43.3c-3.3,5.6-10.9,17.3-12.6,22.9
		c-3.5,11.1,3.3,37.7-4.3,46.9c-2.5,3.7-5.7,5.9-10.1,6.8C1973.9,253.8,1969.9,253.1,1966.6,251.1z"/>
	<path class="st1" d="M1982.3,250.1c1.5-1.4,2.9-2.8,4.4-4.2l1.1,0.2c-2.5,3.7-5.7,5.9-10.1,6.8c-3.8,0.8-7.8,0.1-11.1-2
		C1968.9,250.5,1978.2,250.6,1982.3,250.1z"/>
	<path class="st1" d="M2164.1,249.5c-9.4-6.2-6.8-24.7-6.8-35l0-43.6c0.1-14.3,0.1-28.7,0.1-43c-0.1-14.7-4.7-45.2,19-42.5
		c4.7,0.5,8.9,2.9,11.9,6.6c5.4,7,3.9,26.7,3.9,35.8l0,47.6l0,41.2c0,10.1,2.2,25.8-6.4,32.3C2180.4,254.2,2169.3,255,2164.1,249.5z
		"/>
	<path class="st1" d="M2164.1,249.5c3.5-0.8,14.4,4,19.6-0.4c0.5-0.4,1.2-0.1,1.9-0.1C2180.4,254.2,2169.3,255,2164.1,249.5z"/>
	<path class="st1" d="M2211.4,251.4c-10.6-4.7-9.7-14.5-9.8-24.3c-0.1-5-0.1-10,0-14.9l0.2-45.8l0-41c0-9-0.4-19,1.1-27.8
		c0.7-3.9,3.3-7.4,6.6-9.6c3.8-2.5,8.4-3.3,12.9-2.4c13.1,2.7,14.1,14.3,13.8,25.3c-0.3,10.4-0.3,21.1-0.3,31.5l0.3,64.9
		c0,6,0.1,12.1,0,18.2c0,7.6,1,19.5-6.6,24.1C2223.8,253.8,2217.9,254.5,2211.4,251.4z"/>
	<path class="st1" d="M2211.4,251.4c0.4-0.2,0.8-0.5,1.2-0.7c3.1,0.6,15.6-1.4,17-1.1C2223.8,253.8,2217.9,254.5,2211.4,251.4z"/>
</g>
<text transform="matrix(1 0 0 1 2390.1689 253.3224)" class="st4" style="font-family:'InkFree'; font-size:260.8023px;">GO</text>
<g>
	<path class="st1" d="M1902.8-1253.7c-18.5-13.7,5.9-67.7-18.4-83.2c-33.1-21.2-62.9,24.7-32.9,47.3c11.7,8.4,30.1,0.3,34.4,18.5
		c2.4,10-5.7,19.6-15.4,20.7c-31.2,3.4-60.3-21.8-65.4-51.6c-3-16.8,1-34,11.1-47.8c10.2-14,25.7-23.4,42.9-25.9
		c37.9-5.7,72.8,26.7,72.1,64.6c-0.1,5,0,10.4-0.1,15.5c-1.2,9.1,4,38.3-7.3,42.1C1916.3-1248.3,1910.2-1249.4,1902.8-1253.7z"/>
	<path class="st1" d="M1902.8-1253.7c1.9-0.1,7.2,0.6,10.1,0.7c4.9,0.2,6.7-0.6,10.8-0.7C1916.3-1248.3,1910.2-1249.4,1902.8-1253.7
		z"/>
	<path class="st1" d="M1628.8-1251.8c-36.6-8.5-57.1-47.4-44.7-82.6c5.7-15.7,17.3-28.6,32.4-35.7c15.1-7.1,32-8.1,47.7-2.4
		c16.5,6,29.3,17.9,36.7,33.8c2.4,5.2,4.4,10.6,5.2,16.2c1.3,8.5,1.9,54.9-0.7,61.9c-1.2,3.2-3.6,6.2-6.8,7.6
		c-5.3,3.7-11.1,3.7-16.9,1.1c-13.7-7.8-9.4-20.9-10.1-34.2c-0.9-16.5,5.1-36.1-8.8-48.7c-13.1-11.9-36.1-9-44.1,7.6
		c-9.9,22.6,4,42.9,27.9,42.9c7.5,0,15.6,7.9,15.4,15.3c-0.1,5.6-0.4,8.3-4.7,13l-0.5,0.5
		C1650.9-1248.4,1636.7-1249.3,1628.8-1251.8z"/>
	<path class="st1" d="M1628.8-1251.8c4.4-2.9,16.4,2.8,26.6-3.9l0.6-0.4l0.8,0.5C1650.9-1248.4,1636.7-1249.3,1628.8-1251.8z"/>
	<path class="st1" d="M1681.7-1252c1.2-0.8,15.4-1.5,16.9-1.1C1693.2-1249.4,1687.5-1249.3,1681.7-1252z"/>
	<path class="st1" d="M1525.2-1252.3c-17.3-7.2-5.5-39.8-10.6-53.5c-1.4-3.9-6.7-11.5-9-15.3l-28.5-47.8
		c-5.6-9.4-17.3-25.1-15.5-35.8c2.3-13.5,21-18,29.2-7.4c5.7,7.2,10.6,17,15.3,25l26.2,45.1c14.2-21.2,25-46.6,39.4-68
		c12.1-17.9,38.8-2.7,29.4,16.7c-3.9,7.9-8.5,15.6-12.8,23.3c-8.2,14.5-16.5,28.9-24.9,43.3c-3.3,5.6-10.9,17.3-12.6,22.9
		c-3.5,11.1,3.3,37.7-4.3,46.9c-2.5,3.7-5.7,5.9-10.1,6.8C1532.5-1249.5,1528.5-1250.2,1525.2-1252.3z"/>
	<path class="st1" d="M1540.9-1253.2c1.5-1.4,2.9-2.8,4.4-4.2l1.1,0.2c-2.5,3.7-5.7,5.9-10.1,6.8c-3.8,0.8-7.8,0.1-11.1-2
		C1527.5-1252.8,1536.8-1252.7,1540.9-1253.2z"/>
	<path class="st1" d="M1722.7-1253.8c-9.3-6.2-6.8-24.7-6.8-35l0-43.6c0.1-14.3,0.1-28.7,0.1-43c-0.1-14.7-4.7-45.2,19-42.5
		c4.7,0.5,8.9,2.9,11.9,6.6c5.4,7,3.9,26.7,3.9,35.8l0,47.6l0,41.2c0,10.1,2.2,25.8-6.4,32.3
		C1738.9-1249.1,1727.9-1248.4,1722.7-1253.8z"/>
	<path class="st1" d="M1722.7-1253.8c3.5-0.8,14.4,4,19.6-0.4c0.5-0.4,1.2-0.1,1.9-0.1C1738.9-1249.1,1727.9-1248.4,1722.7-1253.8z"
		/>
	<path class="st1" d="M1770-1251.9c-10.7-4.7-9.7-14.5-9.8-24.3c-0.1-5-0.1-10,0-14.9l0.2-45.8l0-41c0-9-0.4-19,1.1-27.8
		c0.7-3.9,3.3-7.4,6.6-9.6c3.8-2.5,8.4-3.3,12.9-2.4c13.1,2.7,14.1,14.3,13.8,25.3c-0.3,10.4-0.3,21.1-0.3,31.5l0.3,64.9
		c0,6,0.1,12.1,0,18.2c0,7.6,1,19.5-6.6,24.1C1782.4-1249.5,1776.5-1248.8,1770-1251.9z"/>
	<path class="st1" d="M1770-1251.9c0.4-0.2,0.8-0.5,1.2-0.7c3.1,0.6,15.6-1.4,17-1.1C1782.4-1249.5,1776.5-1248.8,1770-1251.9z"/>
</g>
<text transform="matrix(1 0 0 1 1902.7833 -1249.9967)" class="st4" style="font-family:'Impact'; font-size:260.8023px;">GO</text>
<g>
	<path class="st1" d="M1942.2-612.3c-18.5-13.7,5.9-67.7-18.4-83.2c-33.1-21.2-62.9,24.7-32.9,47.3c11.7,8.4,30.1,0.3,34.4,18.5
		c2.4,10-5.7,19.6-15.4,20.7c-31.2,3.4-60.3-21.8-65.4-51.6c-3-16.8,1-34,11.1-47.8c10.2-14,25.7-23.4,42.9-25.9
		c37.9-5.7,72.8,26.7,72.1,64.6c-0.1,5,0,10.4-0.1,15.5c-1.2,9.1,4,38.3-7.3,42.1C1955.7-606.9,1949.6-608,1942.2-612.3z"/>
	<path class="st1" d="M1942.2-612.3c1.9-0.1,7.2,0.6,10.1,0.7c4.9,0.2,6.7-0.6,10.8-0.7C1955.7-606.9,1949.6-608,1942.2-612.3z"/>
	<path class="st1" d="M1668.2-610.5c-36.6-8.5-57.1-47.4-44.7-82.6c5.7-15.7,17.3-28.6,32.4-35.7c15.1-7.1,32-8.1,47.7-2.4
		c16.5,6,29.3,17.9,36.7,33.8c2.4,5.2,4.4,10.6,5.2,16.2c1.3,8.5,1.9,54.9-0.7,61.9c-1.2,3.2-3.6,6.2-6.8,7.6
		c-5.3,3.7-11.1,3.7-16.9,1.1c-13.7-7.8-9.4-20.9-10.1-34.2c-0.9-16.5,5.1-36.1-8.8-48.7c-13.1-11.9-36.1-9-44.1,7.6
		c-9.9,22.6,4,42.9,27.9,42.9c7.5,0,15.6,7.9,15.4,15.3c-0.1,5.6-0.4,8.3-4.7,13l-0.5,0.5C1690.3-607.1,1676.1-608,1668.2-610.5z"/>
	<path class="st1" d="M1668.2-610.5c4.4-2.9,16.4,2.8,26.6-3.9l0.6-0.4l0.8,0.5C1690.3-607.1,1676.1-608,1668.2-610.5z"/>
	<path class="st1" d="M1721.1-610.6c1.2-0.8,15.4-1.5,16.9-1.1C1732.6-608,1726.9-608,1721.1-610.6z"/>
	<path class="st1" d="M1564.6-610.9c-17.3-7.2-5.5-39.8-10.6-53.5c-1.4-3.9-6.7-11.5-9-15.3l-28.5-47.8
		c-5.6-9.4-17.3-25.1-15.5-35.8c2.3-13.5,21-18,29.2-7.4c5.7,7.2,10.6,17,15.3,25l26.2,45.1c14.2-21.2,25-46.6,39.4-68
		c12.1-17.9,38.8-2.7,29.4,16.7c-3.9,7.9-8.5,15.6-12.8,23.3c-8.2,14.5-16.5,28.9-24.9,43.3c-3.3,5.6-10.9,17.3-12.6,22.9
		c-3.5,11.1,3.3,37.7-4.3,46.9c-2.5,3.7-5.7,5.9-10.1,6.8C1571.8-608.2,1567.9-608.9,1564.6-610.9z"/>
	<path class="st1" d="M1580.3-611.8c1.5-1.4,2.9-2.8,4.4-4.2l1.1,0.2c-2.5,3.7-5.7,5.9-10.1,6.8c-3.8,0.8-7.8,0.1-11.1-2
		C1566.9-611.5,1576.2-611.3,1580.3-611.8z"/>
	<path class="st1" d="M1762.1-612.5c-9.3-6.2-6.8-24.7-6.8-35l0-43.6c0.1-14.3,0.1-28.7,0.1-43c-0.1-14.7-4.7-45.2,19-42.5
		c4.7,0.5,8.9,2.9,11.9,6.6c5.4,7,3.9,26.7,3.9,35.8l0,47.6l0,41.2c0,10.1,2.2,25.8-6.4,32.3C1778.3-607.8,1767.3-607,1762.1-612.5z
		"/>
	<path class="st1" d="M1762.1-612.5c3.5-0.8,14.4,4,19.6-0.4c0.5-0.4,1.2-0.1,1.9-0.1C1778.3-607.8,1767.3-607,1762.1-612.5z"/>
	<path class="st1" d="M1809.4-610.6c-10.7-4.7-9.7-14.5-9.8-24.3c-0.1-5-0.1-10,0-14.9l0.2-45.8l0-41c0-9-0.4-19,1.1-27.8
		c0.7-3.9,3.3-7.4,6.6-9.6c3.8-2.5,8.4-3.3,12.9-2.4c13.1,2.7,14.1,14.3,13.8,25.3c-0.3,10.4-0.3,21.1-0.3,31.5l0.3,64.9
		c0,6,0.1,12.1,0,18.2c0,7.6,1,19.5-6.6,24.1C1821.8-608.1,1815.9-607.5,1809.4-610.6z"/>
	<path class="st1" d="M1809.4-610.6c0.4-0.2,0.8-0.5,1.2-0.7c3.1,0.6,15.6-1.4,17-1.1C1821.8-608.1,1815.9-607.5,1809.4-610.6z"/>
</g>
<text transform="matrix(1 0 0 1 2021.9092 -615.9638)" class="st4" style="font-family:'ForteMT'; font-size:260.8023px;">GO</text>
<g>
	<path class="st1" d="M1834.4-955.4c-18.5-13.7,5.9-67.7-18.4-83.2c-33.1-21.2-62.9,24.7-32.9,47.3c11.7,8.4,30.1,0.3,34.4,18.5
		c2.4,10-5.7,19.6-15.4,20.7c-31.2,3.4-60.3-21.8-65.4-51.6c-3-16.8,1-34,11.1-47.8c10.2-14,25.7-23.4,42.9-25.9
		c37.9-5.7,72.8,26.7,72.1,64.6c-0.1,5,0,10.4-0.1,15.5c-1.2,9.1,4,38.3-7.3,42.1C1847.9-950.1,1841.8-951.1,1834.4-955.4z"/>
	<path class="st1" d="M1834.4-955.4c1.9-0.1,7.2,0.6,10.1,0.7c4.9,0.2,6.7-0.6,10.8-0.7C1847.9-950.1,1841.8-951.1,1834.4-955.4z"/>
	<path class="st1" d="M1560.4-953.6c-36.6-8.5-57.1-47.4-44.7-82.6c5.7-15.7,17.3-28.6,32.4-35.7c15.1-7.1,32-8.1,47.7-2.4
		c16.5,6,29.3,17.9,36.7,33.8c2.4,5.2,4.4,10.6,5.2,16.2c1.3,8.5,1.9,54.9-0.7,61.9c-1.2,3.2-3.6,6.2-6.8,7.6
		c-5.3,3.7-11.1,3.7-16.9,1.1c-13.7-7.8-9.4-20.9-10.1-34.2c-0.9-16.5,5.1-36.1-8.8-48.7c-13.1-11.9-36.1-9-44.1,7.6
		c-9.9,22.6,4,42.9,27.9,42.9c7.5,0,15.6,7.9,15.4,15.3c-0.1,5.6-0.4,8.3-4.7,13l-0.5,0.5C1582.5-950.2,1568.3-951.1,1560.4-953.6z"
		/>
	<path class="st1" d="M1560.4-953.6c4.4-2.9,16.4,2.8,26.6-3.9l0.6-0.4l0.8,0.5C1582.5-950.2,1568.3-951.1,1560.4-953.6z"/>
	<path class="st1" d="M1613.3-953.8c1.2-0.8,15.4-1.5,16.9-1.1C1624.8-951.1,1619.1-951.1,1613.3-953.8z"/>
	<path class="st1" d="M1456.8-954c-17.3-7.2-5.5-39.8-10.6-53.5c-1.4-3.9-6.7-11.5-9-15.3l-28.5-47.8c-5.6-9.4-17.3-25.1-15.5-35.8
		c2.3-13.5,21-18,29.2-7.4c5.7,7.2,10.7,17,15.3,25l26.2,45.1c14.2-21.2,25-46.6,39.4-68c12.1-17.9,38.8-2.7,29.4,16.7
		c-3.9,7.9-8.5,15.6-12.8,23.3c-8.2,14.5-16.5,28.9-24.9,43.3c-3.3,5.6-10.9,17.3-12.6,22.9c-3.5,11.1,3.3,37.7-4.3,46.9
		c-2.5,3.7-5.7,5.9-10.1,6.8C1464-951.3,1460.1-952,1456.8-954z"/>
	<path class="st1" d="M1472.5-955c1.5-1.4,2.9-2.8,4.4-4.2l1.1,0.2c-2.5,3.7-5.7,5.9-10.1,6.8c-3.8,0.8-7.8,0.1-11.1-2
		C1459-954.6,1468.4-954.5,1472.5-955z"/>
	<path class="st1" d="M1654.3-955.6c-9.3-6.2-6.8-24.7-6.8-35l0-43.6c0.1-14.3,0.1-28.7,0.1-43c-0.1-14.7-4.7-45.2,19-42.5
		c4.7,0.5,8.9,2.9,11.9,6.6c5.4,7,3.9,26.7,3.9,35.8l0,47.6l0,41.2c0,10.1,2.2,25.8-6.4,32.3
		C1670.5-950.9,1659.5-950.1,1654.3-955.6z"/>
	<path class="st1" d="M1654.3-955.6c3.5-0.8,14.4,4,19.6-0.4c0.5-0.4,1.2-0.1,1.9-0.1C1670.5-950.9,1659.5-950.1,1654.3-955.6z"/>
	<path class="st1" d="M1701.6-953.7c-10.7-4.7-9.7-14.5-9.8-24.3c-0.1-5-0.1-10,0-14.9l0.2-45.8l0-41c0-9-0.4-19,1.1-27.8
		c0.7-3.9,3.3-7.4,6.6-9.6c3.8-2.5,8.4-3.3,12.9-2.4c13.1,2.7,14.1,14.3,13.8,25.3c-0.3,10.4-0.3,21.1-0.3,31.5l0.3,64.9
		c0,6,0.1,12.1,0,18.2c0,7.6,1,19.5-6.6,24.1C1713.9-951.3,1708.1-950.6,1701.6-953.7z"/>
	<path class="st1" d="M1701.6-953.7c0.4-0.2,0.8-0.5,1.2-0.7c3.1,0.6,15.6-1.4,17-1.1C1713.9-951.3,1708.1-950.6,1701.6-953.7z"/>
</g>
<text transform="matrix(1 0 0 1 1868.5083 -951.784)" class="st4" style="font-family:'FONTSPRINGDEMO-IntegralCFHeavyRegular'; font-size:260.8023px;">GO</text>
<path class="st5" d="M-502.8-484.5c39.2-3.2,73.6,26.1,76.7,65.3c3.1,39.2-26.2,73.5-65.4,76.6c-39.2,3.1-73.4-26.1-76.5-65.3
	C-571.2-447.1-542-481.4-502.8-484.5z M-496-385.6c15.6-0.5,27.9-13.6,27.5-29.2c-0.4-15.6-13.3-28-29-27.7
	c-15.8,0.3-28.4,13.4-28,29.2C-525.1-397.5-511.9-385.1-496-385.6z M-527.7-374c0.2-2.1-0.1-2.5-1.7-4.3
	c-10.8-11.7-16.3-20.9-15.4-37.1c0.2-3.9,3-14.4,2-16.9l-1.4-1.2c-4.9,6.5-4.6,20.6-4,28.4C-547.5-396.6-537.3-374.2-527.7-374z
	 M-460.4-381.7c-2.8,2.1-8.6,6.1-10,9l0.1,1.3c1,0.7,0.6,0.6,1.8,0.8c2.9-1.2,9.2-6.3,9.8-9.5C-459.4-381.3-458.9-380.8-460.4-381.7
	z M-506.5-465.2c-4.2,1-10.2,2-13,5.1c-0.4,1.6-0.5,0.9,0.1,2.1c1.6,0.3,2,0.1,3.5-0.2c3.2-0.9,12-2.9,13.8-5.5l-0.4-1
	C-504.3-465.4-504.4-465.3-506.5-465.2z M-450.1-432.8c-0.6,0.6-1.5,1.2-1.4,2.1c0.8,3.8,1.7,13.7,4.9,15.8
	C-443.3-418.2-446.5-431.3-450.1-432.8z M-452.1-440.8c-1.2-4.4-9.3-13.9-14.3-13.9c0.2,4.7,6,8.5,9,12.1
	C-455.7-440.7-454.6-440.8-452.1-440.8z M-489.9-362.5c4.5-0.8,8.8-1.3,12.2-4.5l0.2-0.8l-1-1l0.6,1.2l-1.3-1.2l-2.9,0.6
	c-3.2,0.6-11,1.4-12.9,3.8C-494.1-362.1-492.1-362.2-489.9-362.5z M-530.2-454.6c-2.3,2-12.4,10.3-9.3,13.1c1.1-0.1,1.4-0.1,2.4-0.4
	l0.5-0.6c2.7-3.5,9.1-8.4,9.5-11.3C-528.5-455-528-454.6-530.2-454.6z M-522.1-370.6c1.4,5.1,13.1,7.5,17.8,7.1
	c-0.2-1.1-0.2-2.3-1.2-2.8C-508.7-368.2-518.7-371.2-522.1-370.6z M-491.9-465.2l-0.7,1.5c1.5,3.1,13.1,4.9,17.4,6.5
	c1-1.8,0.9-1.1,0.7-2.8C-477.4-463.6-487.6-465.4-491.9-465.2z"/>
<path class="st5" d="M-650.5-452.2c1,0,2-0.1,3.1-0.1c21.2-0.2,41.8-3.3,58.2,13.2c14.3,14.3,15,29.1,14.3,47.9
	c-0.5,14.7,1.4,29.8-2.1,44.3c-5,21.5-18.9,39.6-37.8,50.7c-18.3,10.7-36.6,11-57.1,11.1l-35.5-0.1c-17.4-1-27.4-18.3-17.9-33.3
	c8.8-13.2,29.6-8.6,43.2-9.1c23.4-0.8,44.9,4.4,59.5-18.7c2.4-3.8,4-8,4.8-12.4c1.1-5.5,1.9-36.3,0.7-42.1
	c-6.4-18.5-31.1-3.7-44.6-14c-10.2-7.7-10.5-21.9-2.2-31.2C-660.5-449.7-655.6-451.2-650.5-452.2z M-640.7-306.2
	c4.7-1.3,9-2.2,12.8-5.5l0.4-1.3c-1.5-1.4-2.5-1.1-4.5-0.9c-3.2,1.5-12,4.2-13.3,6.3l0.4,0.8C-643-306.2-642.7-306.2-640.7-306.2z
	 M-646.5-433l-0.9,1.1c1.5,3.7,11.9,2.4,15.5,2.2c1.4-0.8,1-0.2,1.4-1.7C-632.3-434.3-643.2-433.4-646.5-433z M-670.9-308.2
	l-0.9,1.4c1.1,3.9,12.7,2.4,16.2,2.3l1.2-1l0.1-1.2C-657.2-309.3-666.7-308.4-670.9-308.2z M-697.6-308.1l-0.9,1.3
	c1.2,4,12.4,2.4,15.9,1.9l1.1-1.1l-0.1-1.1C-684.2-309.3-693.8-308.3-697.6-308.1z M-594.5-369.9c1.4-3.5,1.4-12.2,0.2-15.9
	c-0.3-1-1.5-1.3-2.4-1.6c-1.1,2.3-2.3,15,0.6,17.1C-595.7-370.1-594.9-369.9-594.5-369.9z M-608.8-331c-2.6,2.8-10.7,9.8-10.9,12.4
	c1,1.2,0.4,0.8,2.2,1c3.5-2.8,9.9-7.4,11.8-11.2l-0.2-1.3C-607.6-331.2-606.7-330.9-608.8-331z M-618.7-433.1l-1.8,0.9l-0.2,1.1
	c1.9,2.6,10.1,5,13.9,7.1c1.9-1.3,1.4-0.6,1.9-2.5C-606.7-430.1-614.8-432.5-618.7-433.1z"/>
<path class="st5" d="M-639.9-511.7c10.6-0.3,48.3-1.3,56.4,1.3c5.4,1.7,9.4,5.1,12,10.1c2.5,5,3.2,10.9,1.4,16.3
	c-2.1,6.2-6.6,10.9-12.8,13.2c-6.3,2.3-13.4,1.7-20,1.7c-16.6,0-50.2-2.5-64,4.4c-8.6,4.3-15,11.8-18,20.9
	c-7.8,23.4,7.1,48.9,31.9,50.8c13,1,21.8-1.8,28.9,12.6l0.4,0.7c0.7,2.1,0.9,4.4,1,6.6c0.2,5.5-1.8,10.9-5.6,14.9
	c-5.2,5.5-10.2,7.2-17.5,7.5c-21.5,1-42.5-6.8-58.1-21.5c-51-47.4-20.8-128.9,45.6-138.4C-652.6-511.6-645.7-511.5-639.9-511.7z
	 M-643.9-492.5c-2.5,0-4.9-0.2-6.7,1.5c2.6,3.2,9.6,2.6,13.2,2.5c1.9,0,2.7,0.2,4.4-0.5l0.7-1.1
	C-634.7-493.4-640.3-492.7-643.9-492.5z M-658.5-371.8c0-0.7,0.3-1.5-0.3-2c-3.5-2.5-12.7-5.4-16.7-5c1.3,5.8,11.5,7.7,16.4,7
	L-658.5-371.8z M-704.2-453.1c-3.3,3-7.4,15.8-3.5,19C-704.9-436.9-701.2-450.1-704.2-453.1z M-674.9-481.8
	c3.4-1.4,11.6-4.1,13.5-6.8l0-1c-1.6-1.2-1-0.8-3.1-1.1c-3.3,1.3-13,4.4-14,7.8C-677.5-481.2-676.7-481.5-674.9-481.8z
	 M-615.6-488.4c4.2,0,16,0.6,18.7-0.9c0.4-1.9,0.6-1.1-0.3-2.6c-1.8-0.8-3.6-0.7-5.6-0.6c-4.8,0.1-15.5-0.5-19,1.3l-0.3,0.9
	C-619.9-488-618.6-488.4-615.6-488.4z M-697.5-397c-0.8,6.4,8.5,14.8,14.8,14.5C-683.2-385.6-694.4-396-697.5-397z M-688.7-478
	c-3.5,3-9.9,9.8-11,14.3l0.3,1.5c0.9,0.3,1.2,0.4,2.1,0.6c2.5-3.2,10.3-11.9,10.6-15.1C-687.8-478-687.1-477.6-688.7-478z"/>
<g>
	<path class="st1" d="M-766.3-347.5c-18.5-13.7,5.9-67.7-18.4-83.2c-33.1-21.2-62.9,24.7-32.9,47.3c11.7,8.4,30.1,0.3,34.4,18.5
		c2.4,10-5.7,19.6-15.4,20.7c-31.2,3.4-60.3-21.8-65.4-51.6c-3-16.8,1-34,11.1-47.8c10.2-14,25.7-23.4,42.9-25.9
		c37.9-5.7,72.8,26.7,72.1,64.6c-0.1,5,0,10.4-0.1,15.5c-1.2,9.1,4,38.3-7.3,42.1C-752.7-342.1-758.8-343.2-766.3-347.5z"/>
	<path class="st1" d="M-766.3-347.5c1.9-0.1,7.2,0.6,10.1,0.7c4.9,0.2,6.7-0.6,10.8-0.7C-752.7-342.1-758.8-343.2-766.3-347.5z"/>
	<path class="st1" d="M-1040.2-345.7c-36.6-8.5-57.1-47.4-44.7-82.6c5.7-15.7,17.3-28.6,32.4-35.7c15.1-7.1,32-8.1,47.7-2.4
		c16.5,6,29.3,17.9,36.7,33.8c2.4,5.2,4.4,10.6,5.2,16.2c1.3,8.5,1.9,54.9-0.7,61.9c-1.2,3.2-3.6,6.2-6.8,7.6
		c-5.3,3.7-11.1,3.7-16.9,1.1c-13.7-7.8-9.4-20.9-10.1-34.2c-0.9-16.5,5.1-36.1-8.8-48.7c-13.1-11.9-36.1-9-44.1,7.6
		c-9.9,22.6,4,42.9,27.9,42.9c7.5,0,15.6,7.9,15.4,15.3c-0.1,5.6-0.4,8.3-4.7,13l-0.5,0.5C-1018.1-342.3-1032.4-343.2-1040.2-345.7z
		"/>
	<path class="st1" d="M-1040.2-345.7c4.4-2.9,16.4,2.8,26.6-3.9l0.6-0.4l0.8,0.5C-1018.1-342.3-1032.4-343.2-1040.2-345.7z"/>
	<path class="st1" d="M-987.3-345.8c1.2-0.8,15.4-1.5,16.9-1.1C-975.8-343.2-981.6-343.1-987.3-345.8z"/>
	<path class="st1" d="M-1143.9-346.1c-17.3-7.2-5.5-39.8-10.6-53.5c-1.4-3.9-6.7-11.5-9-15.3l-28.5-47.8
		c-5.6-9.4-17.3-25.1-15.5-35.8c2.3-13.5,21-18,29.2-7.4c5.7,7.2,10.7,17,15.3,25l26.2,45.1c14.2-21.2,25-46.6,39.4-68
		c12.1-17.9,38.8-2.7,29.4,16.7c-3.9,7.9-8.5,15.6-12.8,23.3c-8.2,14.5-16.5,28.9-24.9,43.3c-3.3,5.6-10.9,17.3-12.6,22.9
		c-3.5,11.1,3.3,37.7-4.3,46.9c-2.5,3.7-5.7,5.9-10.1,6.8C-1136.6-343.4-1140.6-344.1-1143.9-346.1z"/>
	<path class="st1" d="M-1128.2-347c1.5-1.4,2.9-2.8,4.4-4.2l1.1,0.2c-2.5,3.7-5.7,5.9-10.1,6.8c-3.8,0.8-7.8,0.1-11.1-2
		C-1141.6-346.7-1132.3-346.5-1128.2-347z"/>
	<path class="st1" d="M-946.3-347.7c-9.4-6.2-6.8-24.7-6.8-35l0-43.6c0.1-14.3,0.1-28.7,0.1-43c-0.1-14.7-4.7-45.2,19-42.5
		c4.7,0.5,8.9,2.9,11.9,6.6c5.4,7,3.9,26.7,3.9,35.8l0,47.6l0,41.2c0,10.1,2.2,25.8-6.4,32.3C-930.1-342.9-941.2-342.2-946.3-347.7z
		"/>
	<path class="st1" d="M-946.3-347.7c3.5-0.8,14.4,4,19.6-0.4c0.5-0.4,1.2-0.1,1.9-0.1C-930.1-342.9-941.2-342.2-946.3-347.7z"/>
	<path class="st1" d="M-899.1-345.8c-10.7-4.7-9.7-14.5-9.8-24.3c-0.1-5-0.1-10,0-14.9l0.2-45.8l0-41c0-9-0.4-19,1.1-27.8
		c0.7-3.9,3.3-7.4,6.6-9.6c3.8-2.5,8.4-3.3,12.9-2.4c13.1,2.7,14.1,14.3,13.8,25.3c-0.3,10.4-0.3,21.1-0.3,31.5l0.3,64.9
		c0,6,0.1,12.1,0,18.2c0,7.6,1,19.5-6.6,24.1C-886.7-343.3-892.5-342.7-899.1-345.8z"/>
	<path class="st1" d="M-899.1-345.8c0.4-0.2,0.8-0.5,1.2-0.7c3.1,0.6,15.6-1.4,17-1.1C-886.7-343.3-892.5-342.7-899.1-345.8z"/>
</g>
<path class="st5" d="M-498.1-559.5c2.7-0.1,5.9,0.3,8.5,1.2c6.3,2.1,11.5,6.6,14.4,12.6c2.5,5.2,3.5,12.4,1.4,17.7
	c-3.2,8-14.4,28.7-21.7,32.2c-9.1-1-14.2-13.7-19.1-20.4C-527.3-533.9-522.1-556.9-498.1-559.5z M-493.6-523.2
	c14.2-8.9,9.7-25.1-7.3-23.5C-515.8-539-507.1-519.7-493.6-523.2z"/>
<g>
	<path class="st1" d="M-945.9,662.8c-18.5-13.7,5.9-67.7-18.4-83.2c-33.1-21.2-62.9,24.7-32.9,47.3c11.7,8.4,30.1,0.3,34.4,18.5
		c2.4,10-5.7,19.6-15.4,20.7c-31.2,3.4-60.3-21.8-65.4-51.6c-3-16.8,1-34,11.1-47.8c10.2-14,25.7-23.4,42.9-25.9
		c37.9-5.7,72.8,26.7,72.1,64.6c-0.1,5,0,10.4-0.1,15.5c-1.2,9.1,4,38.3-7.3,42.1C-932.4,668.2-938.4,667.1-945.9,662.8z"/>
	<path class="st1" d="M-945.9,662.8c1.9-0.1,7.2,0.6,10.1,0.7c4.9,0.2,6.7-0.6,10.8-0.7C-932.4,668.2-938.4,667.1-945.9,662.8z"/>
	<path class="st1" d="M-1219.9,664.6c-36.6-8.5-57.1-47.4-44.7-82.6c5.7-15.7,17.3-28.6,32.4-35.7c15.1-7.1,32-8.1,47.7-2.4
		c16.5,6,29.3,17.9,36.7,33.8c2.4,5.2,4.4,10.6,5.2,16.2c1.3,8.5,1.9,54.9-0.7,61.9c-1.2,3.2-3.6,6.2-6.8,7.6
		c-5.3,3.7-11.1,3.7-16.9,1.1c-13.7-7.8-9.4-20.9-10.1-34.2c-0.9-16.5,5.1-36.1-8.8-48.7c-13.1-11.9-36.1-9-44.1,7.6
		c-9.9,22.6,4,42.9,27.9,42.9c7.5,0,15.6,7.9,15.4,15.3c-0.1,5.6-0.4,8.3-4.7,13l-0.5,0.5C-1197.8,668-1212,667.1-1219.9,664.6z"/>
	<path class="st1" d="M-1219.9,664.6c4.4-2.9,16.4,2.8,26.6-3.9l0.6-0.4l0.8,0.5C-1197.8,668-1212,667.1-1219.9,664.6z"/>
	<path class="st1" d="M-1167,664.5c1.2-0.8,15.4-1.5,16.9-1.1C-1155.4,667.1-1161.2,667.2-1167,664.5z"/>
	<path class="st1" d="M-1323.5,664.2c-17.3-7.2-5.5-39.8-10.5-53.5c-1.4-3.9-6.7-11.5-9-15.3l-28.5-47.8
		c-5.6-9.4-17.3-25.1-15.5-35.8c2.3-13.5,21-18,29.2-7.4c5.7,7.2,10.7,17,15.3,25l26.2,45.1c14.2-21.2,25-46.6,39.4-68
		c12.1-17.9,38.8-2.7,29.4,16.7c-3.9,7.9-8.5,15.6-12.8,23.3c-8.2,14.5-16.5,28.9-24.9,43.3c-3.3,5.6-10.9,17.3-12.6,22.9
		c-3.5,11.1,3.3,37.7-4.3,46.9c-2.5,3.7-5.7,5.9-10.1,6.8C-1316.2,666.9-1320.2,666.2-1323.5,664.2z"/>
	<path class="st1" d="M-1307.8,663.3c1.5-1.4,2.9-2.8,4.4-4.2l1.1,0.2c-2.5,3.7-5.7,5.9-10.1,6.8c-3.8,0.8-7.8,0.1-11.1-2
		C-1321.2,663.6-1311.9,663.8-1307.8,663.3z"/>
	<path class="st1" d="M-1126,662.6c-9.3-6.2-6.8-24.7-6.8-35l0-43.6c0.1-14.3,0.1-28.7,0.1-43c-0.1-14.7-4.7-45.2,19-42.5
		c4.7,0.5,8.9,2.9,11.9,6.6c5.4,7,3.9,26.7,3.9,35.8l0,47.6l0,41.2c0,10.1,2.2,25.8-6.4,32.3C-1109.8,667.4-1120.8,668.1-1126,662.6
		z"/>
	<path class="st1" d="M-1126,662.6c3.5-0.8,14.4,4,19.6-0.4c0.5-0.4,1.2-0.1,1.9-0.1C-1109.8,667.4-1120.8,668.1-1126,662.6z"/>
	<path class="st1" d="M-1078.7,664.5c-10.7-4.7-9.7-14.5-9.8-24.3c-0.1-5-0.1-10,0-14.9l0.2-45.8l0-41c0-9-0.4-19,1.1-27.8
		c0.7-3.9,3.3-7.4,6.6-9.6c3.8-2.5,8.4-3.3,12.9-2.4c13.1,2.7,14.1,14.3,13.8,25.3c-0.3,10.4-0.3,21.1-0.3,31.5l0.3,64.9
		c0,6,0.1,12.1,0,18.2c0,7.6,1,19.5-6.6,24.1C-1066.3,667-1072.2,667.6-1078.7,664.5z"/>
	<path class="st1" d="M-1078.7,664.5c0.4-0.2,0.8-0.5,1.2-0.7c3.1,0.6,15.6-1.4,17-1.1C-1066.3,667-1072.2,667.6-1078.7,664.5z"/>
</g>
<text transform="matrix(1 0 0 1 -1060.521 751.4936)" class="st4" style="font-family:'TTMilksCasualPie-Base'; font-size:98.3746px;">GO</text>
<g>
	<path class="st1" d="M648.8,522.1c-18.5-13.7,5.9-67.7-18.4-83.2c-33.1-21.2-62.9,24.7-32.9,47.3c11.7,8.4,30.1,0.3,34.4,18.5
		c2.4,10-5.7,19.6-15.4,20.7c-31.2,3.4-60.3-21.8-65.4-51.6c-3-16.8,1-34,11.1-47.8c10.2-14,25.7-23.4,42.9-25.9
		c37.9-5.7,72.8,26.7,72.1,64.6c-0.1,5,0,10.4-0.1,15.5c-1.2,9.1,4,38.3-7.3,42.1C662.3,527.4,656.2,526.4,648.8,522.1z"/>
	<path class="st1" d="M648.8,522.1c1.9-0.1,7.2,0.6,10.1,0.7c4.9,0.2,6.7-0.6,10.8-0.7C662.3,527.4,656.2,526.4,648.8,522.1z"/>
	<path class="st1" d="M374.8,523.9c-36.6-8.5-57.1-47.4-44.7-82.6c5.7-15.7,17.3-28.6,32.4-35.7c15.1-7.1,32-8.1,47.7-2.4
		c16.5,6,29.3,17.9,36.7,33.8c2.4,5.2,4.4,10.6,5.2,16.2c1.3,8.5,1.9,54.9-0.7,61.9c-1.2,3.2-3.6,6.2-6.8,7.6
		c-5.3,3.7-11.1,3.7-16.9,1.1c-13.7-7.8-9.4-20.9-10.1-34.2c-0.9-16.5,5.1-36.1-8.8-48.7c-13.1-11.9-36.1-9-44.1,7.6
		c-9.9,22.6,4,42.9,27.9,42.9c7.5,0,15.6,7.9,15.4,15.3c-0.1,5.6-0.4,8.3-4.7,13l-0.5,0.5C396.9,527.3,382.7,526.4,374.8,523.9z"/>
	<path class="st1" d="M374.8,523.9c4.4-2.9,16.4,2.8,26.6-3.9l0.6-0.4l0.8,0.5C396.9,527.3,382.7,526.4,374.8,523.9z"/>
	<path class="st1" d="M427.7,523.7c1.2-0.8,15.4-1.5,16.9-1.1C439.2,526.4,433.5,526.4,427.7,523.7z"/>
	<path class="st1" d="M271.2,523.5c-17.3-7.2-5.5-39.8-10.6-53.5c-1.4-3.9-6.7-11.5-9-15.3L223,406.8c-5.6-9.4-17.3-25.1-15.5-35.8
		c2.3-13.5,21-18,29.2-7.4c5.7,7.2,10.6,17,15.3,25l26.2,45.1c14.2-21.2,25-46.6,39.4-68c12.1-17.9,38.8-2.7,29.4,16.7
		c-3.9,7.9-8.5,15.6-12.8,23.3c-8.2,14.5-16.5,28.9-24.9,43.3c-3.3,5.6-10.9,17.3-12.6,22.9c-3.5,11.1,3.3,37.7-4.3,46.9
		c-2.5,3.7-5.7,5.9-10.1,6.8C278.4,526.2,274.5,525.5,271.2,523.5z"/>
	<path class="st1" d="M286.9,522.6c1.5-1.4,2.9-2.8,4.4-4.2l1.1,0.2c-2.5,3.7-5.7,5.9-10.1,6.8c-3.8,0.8-7.8,0.1-11.1-2
		C273.4,522.9,282.8,523,286.9,522.6z"/>
	<path class="st1" d="M468.7,521.9c-9.4-6.2-6.8-24.7-6.8-35l0-43.6c0.1-14.3,0.1-28.7,0.1-43c-0.1-14.7-4.7-45.2,19-42.5
		c4.7,0.5,8.9,2.9,11.9,6.6c5.4,7,3.9,26.7,3.9,35.8l0,47.6l0,41.2c0,10.1,2.2,25.8-6.4,32.3C484.9,526.6,473.9,527.4,468.7,521.9z"
		/>
	<path class="st1" d="M468.7,521.9c3.5-0.8,14.4,4,19.6-0.4c0.5-0.4,1.2-0.1,1.9-0.1C484.9,526.6,473.9,527.4,468.7,521.9z"/>
	<path class="st1" d="M516,523.8c-10.6-4.7-9.7-14.5-9.8-24.3c-0.1-5-0.1-10,0-14.9l0.2-45.8l0-41c0-9-0.4-19,1.1-27.8
		c0.7-3.9,3.3-7.4,6.6-9.6c3.8-2.5,8.4-3.3,12.9-2.4c13.1,2.7,14.1,14.3,13.8,25.3c-0.3,10.4-0.3,21.1-0.3,31.5l0.3,64.9
		c0,6,0.1,12.1,0,18.2c0,7.6,1,19.5-6.6,24.1C528.3,526.2,522.5,526.9,516,523.8z"/>
	<path class="st1" d="M516,523.8c0.4-0.2,0.8-0.5,1.2-0.7c3.1,0.6,15.6-1.4,17-1.1C528.3,526.2,522.5,526.9,516,523.8z"/>
</g>
<g>
	<g>
		<path class="st4" d="M733.8,455.9L740,427h61.2l-20.2,95.3c-22,4.2-40.3,6.4-54.8,6.4c-30.4,0-49-6.4-55.9-19.2
			c-6.8-12.8-6.8-34.8-0.1-66.1l2.3-11.3l3.8-17.7c6-28.4,15.9-48.7,29.7-60.7c13.8-12.1,31.8-18.2,53.9-18.2
			c17.9,0,31.5,4.7,40.8,14c9.4,9.3,11.8,25,7.1,47.1h-39.3c2.5-11.9,2.4-20.3-0.4-25.2c-2.7-5-8-7.5-15.8-7.5
			c-10,0-17.8,4.9-23.2,14.6c-5.5,9.8-11,27.8-16.6,54.1c-5.9,27.9-8,46.2-6.2,54.9c1.9,8.6,8.5,12.9,20,12.9
			c7.7,0,14.7-1.2,20.9-3.7l8.6-40.6H733.8z"/>
		<path class="st4" d="M810.2,418.9c6.8-31.8,16.6-53.6,29.6-65.6c12.9-12,30.6-18,53.1-18c21.9,0,36.9,5.9,45,17.6
			c8.2,11.7,9,33.5,2.3,65.2l-3.1,13.9l-3.1,14.4c-6.9,32.5-17.2,54.4-30.8,65.6c-13.6,11.1-30.6,16.7-51,16.7
			c-23.7,0-39.1-6.4-46.4-19.2c-7.2-12.8-7.9-33.1-1.9-60.7l3.4-16.7L810.2,418.9z M847.4,432.5c-5.5,25.8-7.8,43.6-6.7,53.2
			c1.1,9.7,6.9,14.5,17.5,14.5c10.4,0,18-4.9,23.1-14.8c5.2-9.8,10.5-27.8,16.1-54c5.8-26.9,7.9-44.9,6.5-54
			c-1.3-9.2-7-13.8-17.2-13.8c-10.1,0-17.8,4.8-22.9,14.4C858.4,387.7,853,405.9,847.4,432.5z"/>
	</g>
</g>
</svg>
